<?xml version="1.0" standalone="no"?>
<!DOCTYPE svg PUBLIC "-//W3C//DTD SVG 20010904//EN"
 "http://www.w3.org/TR/2001/REC-SVG-20010904/DTD/svg10.dtd">
<svg version="1.0" xmlns="http://www.w3.org/2000/svg"
 width="298.000000pt" height="92.000000pt" viewBox="0 0 298.000000 92.000000"
 preserveAspectRatio="xMidYMid meet">
<metadata>
Created by potrace 1.10, written by Peter Selinger 2001-2011
</metadata>
<g transform="translate(0.000000,92.000000) scale(0.100000,-0.100000)"
fill="#000000" stroke="none">
<path d="M227 826 c-89 -32 -147 -116 -147 -211 0 -64 16 -102 60 -139 43 -36
86 -44 235 -45 145 -2 165 -9 198 -72 36 -69 -7 -174 -86 -210 -48 -21 -196
-27 -244 -8 -52 19 -113 94 -113 139 0 6 26 10 63 10 59 0 63 -2 90 -35 23
-30 34 -35 68 -35 55 0 89 34 89 90 0 50 -21 72 -89 95 -96 31 -116 -10 -22
-45 62 -23 79 -45 57 -75 -18 -25 -57 -15 -76 20 l-17 30 -104 0 -104 0 -3
-42 c-5 -68 49 -152 123 -191 40 -21 218 -29 272 -12 117 38 189 170 149 275
-18 47 -72 102 -109 110 -12 2 -85 6 -162 7 -115 2 -146 6 -168 21 -41 27 -60
63 -59 113 0 53 24 96 75 137 34 28 45 31 125 35 48 2 105 -1 127 -7 47 -12
97 -60 120 -113 l15 -38 -70 0 c-38 0 -70 4 -70 9 0 4 -12 20 -26 35 -58 58
-154 20 -154 -61 1 -49 16 -68 75 -93 55 -24 88 -23 93 2 2 12 -11 21 -47 33
-60 19 -75 36 -67 71 9 36 53 30 76 -11 17 -30 17 -30 116 -33 126 -3 131 0
115 71 -19 86 -82 155 -161 177 -51 14 -198 11 -243 -4z"/>
<path d="M846 825 c-51 -18 -85 -44 -114 -85 -49 -73 -53 -162 -9 -229 41 -61
80 -74 247 -79 159 -4 190 -13 215 -62 19 -36 19 -103 1 -138 -19 -36 -65 -78
-99 -91 -16 -6 -67 -11 -114 -11 -68 0 -96 5 -131 21 -42 21 -83 69 -97 117
-6 21 -4 22 64 22 43 0 71 -4 71 -10 0 -6 11 -22 25 -35 55 -55 155 -16 155
60 0 44 -31 80 -87 99 -58 20 -79 20 -86 2 -8 -19 9 -31 61 -47 52 -15 66 -31
58 -64 -5 -20 -13 -25 -36 -25 -25 0 -32 6 -44 35 l-15 35 -98 0 c-54 0 -104
-4 -112 -9 -22 -14 -5 -93 32 -148 23 -34 48 -56 87 -76 52 -27 61 -28 166
-25 103 3 114 5 159 33 134 83 141 287 12 349 -27 12 -65 16 -159 16 -144 0
-184 9 -224 51 -25 26 -29 38 -29 83 0 68 36 125 97 155 59 28 194 29 254 2
45 -21 88 -70 99 -113 l7 -28 -71 0 c-55 0 -71 3 -71 14 0 23 -50 56 -86 56
-20 0 -43 -9 -58 -22 -59 -52 -34 -133 50 -162 66 -22 86 -21 82 6 -2 16 -16
26 -51 38 -56 18 -73 40 -57 70 8 15 19 20 37 18 25 -3 36 -14 47 -51 5 -16
17 -17 113 -15 l108 3 3 38 c7 81 -75 184 -163 206 -60 15 -192 13 -239 -4z"/>
<path d="M1628 633 l-28 -4 0 -145 0 -144 35 0 c34 0 35 1 35 43 l0 42 23 -40
c20 -36 27 -40 65 -43 23 -2 42 -1 42 2 0 3 -16 30 -35 60 -19 30 -35 59 -35
63 0 5 14 25 31 46 l31 37 -31 -2 c-24 -2 -38 -12 -59 -43 l-27 -40 -3 88 c-1
48 -6 86 -10 86 -4 -1 -19 -4 -34 -6z"/>
<path d="M1958 633 l-28 -4 0 -145 0 -144 35 0 35 0 0 150 c0 83 -3 149 -7
149 -5 -1 -20 -4 -35 -6z"/>
<path d="M2058 633 l-28 -4 0 -145 0 -144 35 0 35 0 0 150 c0 83 -3 149 -7
149 -5 -1 -20 -4 -35 -6z"/>
<path d="M1824 606 c-12 -30 4 -47 38 -44 28 2 33 7 33 28 0 21 -5 26 -33 28
-22 2 -34 -2 -38 -12z"/>
<path d="M1433 585 c-12 -8 -24 -29 -28 -45 -8 -38 12 -71 60 -103 63 -40 32
-78 -42 -53 -19 6 -23 4 -23 -13 0 -15 10 -23 41 -31 71 -19 128 13 129 75 0
24 -10 39 -51 76 -61 53 -60 75 2 65 34 -5 39 -4 39 13 0 31 -89 42 -127 16z"/>
<path d="M2162 577 c-44 -47 -27 -96 53 -153 26 -19 28 -23 16 -38 -15 -18
-63 -14 -88 6 -10 8 -13 4 -13 -15 0 -16 7 -28 18 -31 82 -23 122 -14 147 35
22 41 7 79 -46 113 -46 31 -54 66 -13 66 14 0 34 -5 45 -10 16 -9 19 -7 19 13
0 19 -7 26 -31 31 -57 11 -85 7 -107 -17z"/>
<path d="M1853 543 c-22 -4 -23 -9 -23 -104 l0 -99 35 0 35 0 0 105 c0 78 -3
105 -12 104 -7 -1 -23 -4 -35 -6z"/>
<path d="M2320 547 c0 -2 17 -51 38 -109 41 -113 41 -138 -2 -138 -15 0 -26
-7 -29 -20 -4 -17 0 -20 34 -20 29 0 42 6 53 23 15 22 96 242 96 259 0 5 -10
8 -22 6 -18 -2 -26 -14 -37 -55 -13 -48 -31 -72 -31 -41 0 7 -7 32 -16 55 -15
39 -20 43 -50 43 -19 0 -34 -1 -34 -3z"/>
<path d="M2558 543 c-16 -4 -18 -18 -18 -104 l0 -99 35 0 35 0 0 80 c0 64 3
80 15 80 12 0 15 -16 15 -80 l0 -80 38 0 37 0 -3 90 c-3 83 -5 92 -28 107 -20
13 -30 14 -49 5 -15 -7 -25 -8 -25 -2 0 10 -21 11 -52 3z"/>
<path d="M2793 530 c-65 -39 -65 -157 0 -188 36 -17 110 -4 115 21 3 13 -4 17
-30 17 -47 0 -58 15 -58 78 l0 55 45 -5 c38 -5 45 -3 45 12 0 12 -11 20 -31
24 -45 9 -51 8 -86 -14z"/>
</g>
</svg>
